#Comment line ignore any data following # character 
#Hierarchical Translation and Rotation (.htr) file 
[Header]	
#Header keywords are followed by a single value 
FileType HTR		#Single word string
DataType HTRS		#Translation followed by rotation and scale data
FileVersion 1		#integer
NumSegments 84		#integer
NumFrames 2		#integer
DataFrameRate 30		#integer, data frame rate in this file
EulerRotationOrder ZYX
CalibrationUnits mm
RotationUnits Degrees
GlobalAxisofGravity Y
BoneLengthAxis Y
ScaleFactor 1.00
[SegmentNames&Hierarchy]
#CHILD	PARENT
MASTER GLOBAL
root MASTER
chest root
L_mid_tent01 root
R_mid_tent01 root
spine01 root
Bip01_Neck chest
L_humerus chest
R_humerus chest
weapon_bone chest
Bip01_Head Bip01_Neck
eye_left_bone Bip01_Head
eye_right_bone Bip01_Head
L_forearm L_humerus
L_front_hand L_forearm
L_weapon_bone L_forearm
L_front_hand01_01 L_front_hand
L_front_hand02_01 L_front_hand
L_front_hand03_01 L_front_hand
L_front_hand01_02 L_front_hand01_01
L_front_hand02_02 L_front_hand02_01
L_front_hand03_02 L_front_hand03_01
R_forearm R_humerus
R_front_hand R_forearm
R_weapon_bone R_forearm
R_front_hand01_01 R_front_hand
R_front_hand02_01 R_front_hand
R_front_hand03_01 R_front_hand
R_front_hand01_02 R_front_hand01_01
R_front_hand02_02 R_front_hand02_01
R_front_hand03_02 R_front_hand03_01
null_rope01_connect L_mid_tent01
Rope1_Seg01 null_rope01_connect
Rope1_Seg02 Rope1_Seg01
Rope1_Seg03 Rope1_Seg02
Rope1_Seg04 Rope1_Seg03
Rope1_Seg05 Rope1_Seg04
Rope1_Seg06 Rope1_Seg05
Rope1_Seg07 Rope1_Seg06
Rope1_Seg09 Rope1_Seg07
L_mid_hand01 Rope1_Seg09
L_mid_hand02 Rope1_Seg09
L_mid_hand03 Rope1_Seg09
null_rope02_connect R_mid_tent01
Rope2_Seg01 null_rope02_connect
Rope2_Seg02 Rope2_Seg01
Rope2_Seg03 Rope2_Seg02
Rope2_Seg04 Rope2_Seg03
Rope2_Seg05 Rope2_Seg04
Rope2_Seg06 Rope2_Seg05
Rope2_Seg07 Rope2_Seg06
Rope2_Seg09 Rope2_Seg07
R_mid_hand01 Rope2_Seg09
R_mid_hand02 Rope2_Seg09
R_mid_hand03 Rope2_Seg09
spine02 spine01
spine03 spine02
pelvis spine03
null_rope03_connect pelvis
null_rope04_connect pelvis
Rope3_Seg01 null_rope03_connect
Rope3_Seg02 Rope3_Seg01
Rope3_Seg03 Rope3_Seg02
Rope3_Seg04 Rope3_Seg03
Rope3_Seg05 Rope3_Seg04
Rope3_Seg06 Rope3_Seg05
Rope3_Seg07 Rope3_Seg06
Rope3_Seg08 Rope3_Seg07
Rope3_Seg09 Rope3_Seg08
R_rear_hand01 Rope3_Seg09
R_rear_hand02 Rope3_Seg09
R_rear_hand03 Rope3_Seg09
Rope4_Seg01 null_rope04_connect
Rope4_Seg02 Rope4_Seg01
Rope4_Seg03 Rope4_Seg02
Rope4_Seg04 Rope4_Seg03
Rope4_Seg05 Rope4_Seg04
Rope4_Seg06 Rope4_Seg05
Rope4_Seg07 Rope4_Seg06
Rope4_Seg08 Rope4_Seg07
Rope4_Seg09 Rope4_Seg08
L_rear_hand01 Rope4_Seg09
L_rear_hand02 Rope4_Seg09
L_rear_hand03 Rope4_Seg09
[BasePosition]
#SegmentName Tx, Ty, Tz, Rx, Ry, Rz, BoneLength
MASTER 0.000000 0.000000 0.000000 -90.000000 0.000000 0.000000 10.000000 
root 0.000000 0.000000 0.000000 0.000000 0.000000 0.000000 10.000000 
chest 0.000000 0.000000 0.000000 0.000000 0.000000 0.000000 10.000000 
L_mid_tent01 0.000000 0.000000 0.000000 0.000000 0.000000 0.000000 10.000000 
R_mid_tent01 0.000000 0.000000 0.000000 0.000000 0.000000 0.000000 10.000000 
spine01 0.000000 0.000000 0.000000 0.000000 0.000000 0.000000 10.000000 
Bip01_Neck 0.000000 0.000000 0.000000 0.000000 0.000000 0.000000 10.000000 
L_humerus 0.000000 0.000000 0.000000 0.000000 0.000000 0.000000 10.000000 
R_humerus 0.000000 0.000000 0.000000 0.000000 0.000000 0.000000 10.000000 
weapon_bone 0.000000 0.000000 0.000000 0.000000 0.000000 0.000000 10.000000 
Bip01_Head 0.000000 0.000000 0.000000 0.000000 0.000000 0.000000 10.000000 
eye_left_bone 0.000000 0.000000 0.000000 0.000000 0.000000 0.000000 10.000000 
eye_right_bone 0.000000 0.000000 0.000000 0.000000 0.000000 0.000000 10.000000 
L_forearm 0.000000 0.000000 0.000000 0.000000 0.000000 0.000000 10.000000 
L_front_hand 0.000000 0.000000 0.000000 0.000000 0.000000 0.000000 10.000000 
L_weapon_bone 0.000000 0.000000 0.000000 0.000000 0.000000 0.000000 10.000000 
L_front_hand01_01 0.000000 0.000000 0.000000 0.000000 0.000000 0.000000 10.000000 
L_front_hand02_01 0.000000 0.000000 0.000000 0.000000 0.000000 0.000000 10.000000 
L_front_hand03_01 0.000000 0.000000 0.000000 0.000000 0.000000 0.000000 10.000000 
L_front_hand01_02 0.000000 0.000000 0.000000 0.000000 0.000000 0.000000 10.000000 
L_front_hand02_02 0.000000 0.000000 0.000000 0.000000 0.000000 0.000000 10.000000 
L_front_hand03_02 0.000000 0.000000 0.000000 0.000000 0.000000 0.000000 10.000000 
R_forearm 0.000000 0.000000 0.000000 0.000000 0.000000 0.000000 10.000000 
R_front_hand 0.000000 0.000000 0.000000 0.000000 0.000000 0.000000 10.000000 
R_weapon_bone 0.000000 0.000000 0.000000 0.000000 0.000000 0.000000 10.000000 
R_front_hand01_01 0.000000 0.000000 0.000000 0.000000 0.000000 0.000000 10.000000 
R_front_hand02_01 0.000000 0.000000 0.000000 0.000000 0.000000 0.000000 10.000000 
R_front_hand03_01 0.000000 0.000000 0.000000 0.000000 0.000000 0.000000 10.000000 
R_front_hand01_02 0.000000 0.000000 0.000000 0.000000 0.000000 0.000000 10.000000 
R_front_hand02_02 0.000000 0.000000 0.000000 0.000000 0.000000 0.000000 10.000000 
R_front_hand03_02 0.000000 0.000000 0.000000 0.000000 0.000000 0.000000 10.000000 
null_rope01_connect 0.000000 0.000000 0.000000 0.000000 0.000000 0.000000 10.000000 
Rope1_Seg01 0.000000 0.000000 0.000000 0.000000 0.000000 0.000000 10.000000 
Rope1_Seg02 0.000000 0.000000 0.000000 0.000000 0.000000 0.000000 10.000000 
Rope1_Seg03 0.000000 0.000000 0.000000 0.000000 0.000000 0.000000 10.000000 
Rope1_Seg04 0.000000 0.000000 0.000000 0.000000 0.000000 0.000000 10.000000 
Rope1_Seg05 0.000000 0.000000 0.000000 0.000000 0.000000 0.000000 10.000000 
Rope1_Seg06 0.000000 0.000000 0.000000 0.000000 0.000000 0.000000 10.000000 
Rope1_Seg07 0.000000 0.000000 0.000000 0.000000 0.000000 0.000000 10.000000 
Rope1_Seg09 0.000000 0.000000 0.000000 0.000000 0.000000 0.000000 10.000000 
L_mid_hand01 0.000000 0.000000 0.000000 0.000000 0.000000 0.000000 10.000000 
L_mid_hand02 0.000000 0.000000 0.000000 0.000000 0.000000 0.000000 10.000000 
L_mid_hand03 0.000000 0.000000 0.000000 0.000000 0.000000 0.000000 10.000000 
null_rope02_connect 0.000000 0.000000 0.000000 0.000000 0.000000 0.000000 10.000000 
Rope2_Seg01 0.000000 0.000000 0.000000 0.000000 0.000000 0.000000 10.000000 
Rope2_Seg02 0.000000 0.000000 0.000000 0.000000 0.000000 0.000000 10.000000 
Rope2_Seg03 0.000000 0.000000 0.000000 0.000000 0.000000 0.000000 10.000000 
Rope2_Seg04 0.000000 0.000000 0.000000 0.000000 0.000000 0.000000 10.000000 
Rope2_Seg05 0.000000 0.000000 0.000000 0.000000 0.000000 0.000000 10.000000 
Rope2_Seg06 0.000000 0.000000 0.000000 0.000000 0.000000 0.000000 10.000000 
Rope2_Seg07 0.000000 0.000000 0.000000 0.000000 0.000000 0.000000 10.000000 
Rope2_Seg09 0.000000 0.000000 0.000000 0.000000 0.000000 0.000000 10.000000 
R_mid_hand01 0.000000 0.000000 0.000000 0.000000 0.000000 0.000000 10.000000 
R_mid_hand02 0.000000 0.000000 0.000000 0.000000 0.000000 0.000000 10.000000 
R_mid_hand03 0.000000 0.000000 0.000000 0.000000 0.000000 0.000000 10.000000 
spine02 0.000000 0.000000 0.000000 0.000000 0.000000 0.000000 10.000000 
spine03 0.000000 0.000000 0.000000 0.000000 0.000000 0.000000 10.000000 
pelvis 0.000000 0.000000 0.000000 0.000000 0.000000 0.000000 10.000000 
null_rope03_connect 0.000000 0.000000 0.000000 0.000000 0.000000 0.000000 10.000000 
null_rope04_connect 0.000000 0.000000 0.000000 0.000000 0.000000 0.000000 10.000000 
Rope3_Seg01 0.000000 0.000000 0.000000 0.000000 0.000000 0.000000 10.000000 
Rope3_Seg02 0.000000 0.000000 0.000000 0.000000 0.000000 0.000000 10.000000 
Rope3_Seg03 0.000000 0.000000 0.000000 0.000000 0.000000 0.000000 10.000000 
Rope3_Seg04 0.000000 0.000000 0.000000 0.000000 0.000000 0.000000 10.000000 
Rope3_Seg05 0.000000 0.000000 0.000000 0.000000 0.000000 0.000000 10.000000 
Rope3_Seg06 0.000000 0.000000 0.000000 0.000000 0.000000 0.000000 10.000000 
Rope3_Seg07 0.000000 0.000000 0.000000 0.000000 0.000000 0.000000 10.000000 
Rope3_Seg08 0.000000 0.000000 0.000000 0.000000 0.000000 0.000000 10.000000 
Rope3_Seg09 0.000000 0.000000 0.000000 0.000000 0.000000 0.000000 10.000000 
R_rear_hand01 0.000000 0.000000 0.000000 0.000000 0.000000 0.000000 10.000000 
R_rear_hand02 0.000000 0.000000 0.000000 0.000000 0.000000 0.000000 10.000000 
R_rear_hand03 0.000000 0.000000 0.000000 0.000000 0.000000 0.000000 10.000000 
Rope4_Seg01 0.000000 0.000000 0.000000 0.000000 0.000000 0.000000 10.000000 
Rope4_Seg02 0.000000 0.000000 0.000000 0.000000 0.000000 0.000000 10.000000 
Rope4_Seg03 0.000000 0.000000 0.000000 0.000000 0.000000 0.000000 10.000000 
Rope4_Seg04 0.000000 0.000000 0.000000 0.000000 0.000000 0.000000 10.000000 
Rope4_Seg05 0.000000 0.000000 0.000000 0.000000 0.000000 0.000000 10.000000 
Rope4_Seg06 0.000000 0.000000 0.000000 0.000000 0.000000 0.000000 10.000000 
Rope4_Seg07 0.000000 0.000000 0.000000 0.000000 0.000000 0.000000 10.000000 
Rope4_Seg08 0.000000 0.000000 0.000000 0.000000 0.000000 0.000000 10.000000 
Rope4_Seg09 0.000000 0.000000 0.000000 0.000000 0.000000 0.000000 10.000000 
L_rear_hand01 0.000000 0.000000 0.000000 0.000000 0.000000 0.000000 10.000000 
L_rear_hand02 0.000000 0.000000 0.000000 0.000000 0.000000 0.000000 10.000000 
L_rear_hand03 0.000000 0.000000 0.000000 0.000000 0.000000 0.000000 10.000000 
#Beginning of Data. Separated by tabs
#Fr	Tx	Ty	Tz	Rx	Ry	Rz	SF
[MASTER]
1 0.000000 0.000000 0.000000 0.001660 0.001660 0.001660 0.000000
2 0.000000 0.000000 0.000000 0.001660 0.001660 0.001660 0.000000
[root]
1 -37.882393 -51.398708 1502.619873 -88.912292 -26.894157 -85.335777 1503.975830
2 -31.392363 -65.563057 1519.283691 -89.668625 -26.911364 -76.849083 1521.021606
[chest]
1 -84.512650 -34.090519 0.000000 -2.549546 2.564800 -176.332138 91.129311
2 -84.512650 -34.090519 0.000000 -2.537362 2.826064 -176.580048 91.129311
[L_mid_tent01]
1 27.300566 22.175749 -249.918777 2.627665 25.577543 80.259453 252.381622
2 27.300526 22.175844 -249.918777 1.631611 29.856585 78.437935 252.381622
[R_mid_tent01]
1 23.228794 24.509907 226.238495 161.299118 -39.988049 84.827385 228.744751
2 23.228794 24.509907 226.238495 157.332993 -45.337845 89.168251 228.744751
[spine01]
1 -0.361383 -0.195265 0.000000 0.001947 0.001312 22.051847 0.410763
2 -0.361383 -0.195265 0.000000 0.001946 0.001313 21.976301 0.410763
[Bip01_Neck]
1 165.484543 71.581718 0.000119 175.896118 1.177290 24.871183 180.302734
2 165.484543 71.581718 0.000119 175.896118 1.177290 24.871183 180.302734
[L_humerus]
1 -13.983130 -135.272980 -120.471481 162.793839 22.903681 -137.126190 181.680161
2 -13.983130 -135.272980 -120.471481 160.276810 26.493914 -137.355438 181.680161
[R_humerus]
1 -13.983309 -135.273102 125.287651 -167.035873 -22.403393 -130.265656 184.909012
2 -13.983309 -135.273102 125.287651 -168.636963 -27.345739 -123.721313 184.909012
[weapon_bone]
1 235.964890 -300.705902 0.000000 0.000000 -89.951546 -128.212341 382.234833
2 235.964890 -300.705902 0.000000 0.000000 -89.951546 -128.212341 382.234833
[Bip01_Head]
1 208.154175 144.942917 8.343200 2.562633 1.473292 -62.980957 253.783813
2 208.449432 144.555054 8.298044 1.267656 1.440038 -62.688816 253.803436
[eye_left_bone]
1 30.121002 154.923126 -74.506310 -160.346466 -89.026627 61.199398 174.526901
2 30.894625 155.389420 -74.658020 -158.611618 -88.941864 59.468414 175.140411
[eye_right_bone]
1 31.164549 156.842194 54.575577 19.695509 -89.031258 61.160061 168.965073
2 32.119240 157.317551 54.416798 21.434944 -88.946686 59.424763 169.533615
[L_forearm]
1 322.776093 0.000000 -0.000119 0.000396 -0.002314 -109.419975 322.776093
2 322.776093 0.000000 -0.000119 0.000377 -0.002317 -108.490250 322.776093
[L_front_hand]
1 241.149185 -0.042021 -3.300071 -178.667953 -1.835447 -27.422350 241.171753
2 241.149185 -0.042021 -3.300071 -178.684006 -1.848046 -26.948961 241.171753
[L_weapon_bone]
1 156.183838 0.000000 0.000000 0.001660 0.001660 0.001660 156.183838
2 156.183838 0.000000 0.000000 0.001651 0.001669 -0.616561 156.183838
[L_front_hand01_01]
1 86.095154 20.947098 -0.655860 -0.366594 -0.477154 75.385574 88.609184
2 86.095154 20.947098 -0.655860 -0.366360 -0.477334 75.329323 88.609184
[L_front_hand02_01]
1 86.935165 -11.437475 24.513514 154.399796 -59.883835 -61.369587 91.046425
2 86.935165 -11.437475 24.513514 154.317520 -59.860394 -61.268326 91.046425
[L_front_hand03_01]
1 86.637497 -14.123976 -20.424902 -153.913849 58.118122 -62.702866 90.126129
2 86.637497 -14.123976 -20.424902 -153.841522 58.096550 -62.616226 90.126129
[L_front_hand01_02]
1 71.020905 -0.000179 0.000030 0.000334 -0.002323 -106.379684 71.020905
2 71.020905 -0.000179 0.000030 0.000334 -0.002323 -106.379684 71.020905
[L_front_hand02_02]
1 71.020927 -0.000119 0.000060 0.000334 -0.002323 -106.379684 71.020927
2 71.020927 -0.000119 0.000060 0.000334 -0.002323 -106.379684 71.020927
[L_front_hand03_02]
1 71.020905 -0.000060 0.000060 0.000334 -0.002323 -106.379684 71.020905
2 71.020905 -0.000060 0.000060 0.000334 -0.002323 -106.379684 71.020905
[R_forearm]
1 322.776428 -0.000060 0.000030 0.206105 0.062253 -108.062820 322.776428
2 322.776428 -0.000060 0.000030 0.209465 0.046048 -102.949173 322.776428
[R_front_hand]
1 238.847015 -0.006795 2.210259 -2.635298 -10.645461 -26.312506 238.857239
2 238.847015 -0.006795 2.210259 -2.635298 -10.645461 -26.312506 238.857239
[R_weapon_bone]
1 155.664093 0.002503 -0.000030 0.003487 0.001180 -90.988930 155.664078
2 155.664093 0.002503 -0.000030 0.003487 0.001180 -90.988930 155.664078
[R_front_hand01_01]
1 87.624611 14.231146 22.918642 -154.633499 -59.950619 61.746044 91.683487
2 87.624611 14.231146 22.918642 -152.458237 -59.311371 59.220978 91.683487
[R_front_hand02_01]
1 89.356956 14.367283 -19.491137 154.602661 58.302849 63.744389 92.579636
2 89.356956 14.367283 -19.491137 152.556641 57.670189 61.336109 92.579636
[R_front_hand03_01]
1 87.286232 -22.307278 -0.143439 0.162155 -0.423168 -75.767921 90.091743
2 87.286232 -22.307278 -0.143439 0.152946 -0.428139 -74.346001 90.091743
[R_front_hand01_02]
1 71.020905 0.000060 0.000119 0.002338 -0.000212 100.374275 71.020905
2 71.020905 0.000060 0.000119 0.002339 -0.000203 99.904800 71.020905
[R_front_hand02_02]
1 71.020844 -0.000030 -0.000119 0.002338 -0.000212 100.367844 71.020836
2 71.020844 -0.000030 -0.000119 0.002339 -0.000203 99.899437 71.020836
[R_front_hand03_02]
1 71.020905 0.000000 0.000030 0.002338 -0.000212 100.374275 71.020905
2 71.020905 0.000000 0.000030 0.002339 -0.000203 99.904800 71.020905
[null_rope01_connect]
1 328.732483 0.000000 -0.000238 -145.110275 -68.297195 -176.987274 328.732483
2 328.732483 0.000000 -0.000238 -161.470062 -67.203552 -157.098129 328.732483
[Rope1_Seg01]
1 -0.000038 -0.000114 0.000095 103.378502 -2.715307 -164.545059 0.000154
2 -0.000038 -0.000114 0.000096 95.646751 -7.087230 -156.823639 0.000154
[Rope1_Seg02]
1 139.999863 -0.000179 0.000000 8.232367 -8.675899 -5.578180 139.999863
2 139.999863 -0.000179 0.000000 9.274909 -7.640704 -6.399997 139.999863
[Rope1_Seg03]
1 139.999924 0.000060 -0.000060 11.918883 -16.081282 -7.625935 139.999924
2 139.999924 0.000060 -0.000060 15.570839 -15.970428 -9.871900 139.999924
[Rope1_Seg04]
1 139.999924 -0.000060 -0.000119 13.390581 -26.538631 -10.303662 139.999924
2 139.999924 -0.000060 -0.000119 19.033541 -30.719719 -13.137650 139.999924
[Rope1_Seg05]
1 139.999832 0.000119 -0.000060 2.135736 -21.604019 1.034411 139.999832
2 139.999832 0.000119 -0.000060 2.431071 -23.226677 2.087893 139.999832
[Rope1_Seg06]
1 139.999954 0.000119 -0.000060 -1.074653 -11.026888 7.887697 139.999954
2 139.999954 0.000119 -0.000060 -0.592997 -8.403930 6.127920 139.999954
[Rope1_Seg07]
1 139.999985 0.000060 0.000000 -1.168345 -7.706539 4.260164 139.999985
2 139.999985 0.000060 0.000000 -0.696362 -5.975909 2.648210 139.999985
[Rope1_Seg09]
1 121.602913 0.000119 -0.000089 -89.790619 -1.359656 0.847385 121.602913
2 121.602913 0.000119 -0.000089 -89.400291 -1.359056 0.846264 121.602913
[L_mid_hand01]
1 103.859421 1.038730 8.195221 106.830864 -31.109169 -9.415485 104.187431
2 103.859421 1.038730 8.195221 106.590981 -29.754934 -8.944053 104.187431
[L_mid_hand02]
1 105.572853 -4.139662 -10.864139 -142.280319 25.666382 -28.651869 106.211075
2 105.572853 -4.139662 -10.864139 -141.752472 24.800730 -27.423903 106.211075
[L_mid_hand03]
1 104.641464 17.579376 -3.913581 -16.143641 9.695980 34.090794 106.179977
2 104.641464 17.579376 -3.913581 -16.370899 9.301978 32.715267 106.179977
[null_rope02_connect]
1 328.732849 0.000179 -0.000119 -118.564804 41.561073 23.259459 328.732849
2 328.732849 0.000179 -0.000119 -117.490440 28.713558 28.518509 328.732849
[Rope2_Seg01]
1 -0.000076 0.000098 0.000000 -46.730179 1.617442 32.716263 0.000124
2 -0.000071 0.000098 0.000000 -46.794174 0.290862 39.280312 0.000121
[Rope2_Seg02]
1 139.999741 -0.000060 -0.000119 -2.651366 0.427750 14.455733 139.999756
2 139.999741 -0.000060 -0.000119 -1.143956 0.406539 16.414974 139.999756
[Rope2_Seg03]
1 140.000107 0.000030 0.000000 -1.357377 1.342475 22.260820 140.000107
2 140.000107 0.000030 0.000000 1.354756 2.105114 22.803228 140.000107
[Rope2_Seg04]
1 139.999802 0.000000 -0.000060 1.762993 1.059633 23.504766 139.999802
2 139.999802 0.000000 -0.000060 3.935249 0.992000 22.427755 139.999802
[Rope2_Seg05]
1 139.999985 -0.000060 0.000119 3.725227 -11.740361 25.230350 139.999985
2 139.999985 -0.000060 0.000119 7.176732 -8.041398 26.373547 139.999985
[Rope2_Seg06]
1 139.999893 -0.000030 -0.000119 8.236303 -7.071738 16.720798 139.999893
2 139.999893 -0.000030 -0.000119 9.461988 -2.582932 15.989198 139.999893
[Rope2_Seg07]
1 139.999893 0.000060 -0.000060 6.494250 -1.285953 8.064969 139.999893
2 139.999893 0.000060 -0.000060 5.980231 0.499281 7.565894 139.999893
[Rope2_Seg09]
1 121.338966 0.000089 -0.000060 33.793236 -1.359788 -0.847141 121.338966
2 121.338966 0.000089 -0.000060 33.793236 -1.359788 -0.847141 121.338966
[R_mid_hand01]
1 104.680779 11.144459 -10.335981 -41.326168 25.790571 29.054953 105.778534
2 104.680779 11.144459 -10.335981 -41.954803 24.607397 27.581720 105.778534
[R_mid_hand02]
1 104.070427 2.443552 8.231699 72.744827 -33.271915 10.207475 104.424065
2 104.070427 2.443552 8.231699 73.070992 -31.567533 9.589904 104.424065
[R_mid_hand03]
1 106.028137 -11.221827 -5.996406 -167.997543 10.373524 -37.556538 106.788818
2 106.028137 -11.221827 -5.996406 -167.685638 9.998048 -35.785023 106.788818
[spine02]
1 129.756927 0.001550 0.000119 0.360061 -4.044797 -12.915058 129.756927
2 129.756927 0.001550 0.000119 0.381877 -4.042573 -13.254539 129.756927
[spine03]
1 78.615112 0.079651 -4.899073 1.896495 3.831288 16.473045 78.767654
2 78.615082 0.079700 -4.899071 1.935243 3.813558 17.069313 78.767632
[pelvis]
1 169.435242 0.051022 0.000000 -0.060465 -0.180225 14.087930 169.435257
2 169.435242 0.051022 0.000000 -0.060740 -0.180133 14.262377 169.435257
[null_rope03_connect]
1 -1.257226 -2.466202 137.391083 69.657692 -84.120033 7.464781 137.418976
2 -1.257226 -2.466202 137.391083 84.141579 -76.252373 -7.437706 137.418976
[null_rope04_connect]
1 -1.259640 -2.480268 -137.844437 69.657692 -84.120033 7.464781 137.872513
2 -1.259640 -2.480268 -137.844437 84.141579 -76.252373 -7.437706 137.872513
[Rope3_Seg01]
1 0.000000 0.000000 0.000000 -116.774734 -42.027176 -104.428116 0.000000
2 0.000000 0.000000 0.000000 -123.755295 -39.558720 -94.485725 0.000000
[Rope3_Seg02]
1 139.999924 -0.000119 0.000060 3.997706 -17.110331 -24.135166 139.999924
2 139.999924 -0.000119 0.000060 3.988358 -16.353642 -28.076935 139.999924
[Rope3_Seg03]
1 139.999924 -0.000119 0.000119 8.888103 -19.445251 -17.671282 139.999924
2 139.999924 -0.000119 0.000119 8.990145 -17.787216 -19.142267 139.999924
[Rope3_Seg04]
1 139.999924 0.000119 0.000000 4.412994 -9.156998 -9.846243 139.999924
2 139.999924 0.000119 0.000000 0.590137 -7.545177 -11.754986 139.999924
[Rope3_Seg05]
1 139.999924 -0.000238 0.000060 -52.883575 -4.206429 -25.538845 139.999924
2 139.999924 -0.000238 0.000060 -100.500198 -1.807293 -26.919344 139.999924
[Rope3_Seg06]
1 139.999893 -0.000119 -0.000060 -79.535950 22.178862 -22.021379 139.999893
2 139.999893 -0.000119 -0.000060 -29.790197 26.063753 4.367867 139.999893
[Rope3_Seg07]
1 139.999771 0.000060 -0.000119 -6.139903 11.799866 6.426425 139.999771
2 139.999771 0.000060 -0.000119 -2.972697 9.286264 6.768232 139.999771
[Rope3_Seg08]
1 139.999985 -0.000060 0.000000 -1.386178 5.379116 3.779631 139.999985
2 139.999985 -0.000060 0.000000 -0.634457 4.516463 3.709301 139.999985
[Rope3_Seg09]
1 90.185997 -0.000179 -0.000060 89.795311 -1.358474 -0.848592 90.185997
2 90.185997 -0.000179 -0.000060 88.214264 -1.359830 -0.847419 90.185997
[R_rear_hand01]
1 103.366196 -6.073594 -10.757982 -161.514954 16.622681 -29.959044 104.101845
2 103.366196 -6.073594 -10.757982 -161.070709 16.114294 -28.383715 104.101845
[R_rear_hand02]
1 100.509819 12.039542 -7.992327 -34.319695 19.215910 28.760387 101.543350
2 100.509819 12.039542 -7.992327 -34.767273 18.310900 27.372818 101.543350
[R_rear_hand03]
1 101.539970 5.215704 5.435467 83.373177 -30.802664 7.266830 101.819031
2 101.539970 5.215704 5.435467 83.483650 -29.219656 7.057811 101.819031
[Rope4_Seg01]
1 0.000000 0.000000 0.000000 50.740208 -18.435259 -114.341003 0.000000
2 0.000000 0.000000 0.000000 48.484177 -19.046556 -105.668037 0.000000
[Rope4_Seg02]
1 139.999985 0.000060 0.000119 1.914554 -18.786671 -9.414250 139.999985
2 139.999985 0.000060 0.000119 1.198771 -15.831108 -8.486532 139.999985
[Rope4_Seg03]
1 139.999924 0.000000 -0.000238 3.547963 -21.683388 -10.645439 139.999924
2 139.999924 0.000000 -0.000238 2.132219 -21.034243 -11.439304 139.999924
[Rope4_Seg04]
1 139.999985 0.000000 0.000119 4.952425 -13.161011 -5.529696 139.999985
2 139.999985 0.000000 0.000119 1.527963 -15.194304 -7.757351 139.999985
[Rope4_Seg05]
1 139.999802 -0.000060 -0.000119 119.627075 -14.538573 -5.819030 139.999802
2 139.999802 -0.000060 -0.000119 -1.317400 -13.909387 -7.596579 139.999802
[Rope4_Seg06]
1 139.999924 0.000000 0.000060 54.923347 3.124648 29.813677 139.999924
2 139.999924 0.000000 0.000060 -170.358810 -23.809334 -15.705170 139.999924
[Rope4_Seg07]
1 139.999802 0.000000 0.000000 3.030419 19.415279 11.448599 139.999802
2 139.999802 0.000000 0.000000 1.156389 20.633219 10.143294 139.999802
[Rope4_Seg08]
1 139.999924 0.000000 0.000119 -0.925401 8.895282 4.802648 139.999924
2 139.999924 0.000000 0.000119 -1.238745 9.336575 4.511858 139.999924
[Rope4_Seg09]
1 90.185791 0.000060 0.000060 -135.615479 2.230401 0.852983 90.185791
2 90.185791 0.000060 0.000060 -136.666000 2.230822 0.850884 90.185791
[L_rear_hand01]
1 101.696655 -8.392275 -7.654577 -34.494175 -18.868284 151.776016 102.329041
2 101.696655 -8.392275 -7.654577 -34.974575 -17.870222 153.297684 102.329041
[L_rear_hand02]
1 102.726799 -1.568258 5.773216 83.420067 30.192865 172.817169 102.900848
2 102.726799 -1.568258 5.773216 83.532455 28.446354 173.043457 102.900848
[L_rear_hand03]
1 104.552910 9.721220 -10.420293 -161.342361 -16.429968 -150.651169 105.519653
2 104.552910 9.721220 -10.420293 -160.858841 -15.862107 -152.380615 105.519653
